PathFileType	4	(X/Y/Z)	C:\Users\WrightLab\Desktop\Jo\P5V43.trc
DataRate	CameraRate	NumFrames	NumMarkers	Units	OrigDataRate	OrigDataStartFrame	OrigNumFrames
100.00	100.00	       19	19	mm	100.00	646	       860
Frame#	Time	Headset_Front			Headset_Back			Headset_Left			Headset_Right			Left_Shoulder			Right_Shoulder			Sternum			C7			Left Elbow			Right Elbow			Left Wrist			Right Wrist			Left ASIS			Right ASIS			S2			Left Knee			Right Knee			Left Ankle			Right Ankle			
		X1	Y1	Z1	X2	Y2	Z2	X3	Y3	Z3	X4	Y4	Z4	X5	Y5	Z5	X6	Y6	Z6	X7	Y7	Z7	X8	Y8	Z8	X9	Y9	Z9	X10	Y10	Z10	X11	Y11	Z11	X12	Y12	Z12	X13	Y13	Z13	X14	Y14	Z14	X15	Y15	Z15	X16	Y16	Z16	X17	Y17	Z17	X18	Y18	Z18	X19	Y19	Z19	

646	6.450	198.27812	1489.93542	889.44794										556.33929	1536.77222	772.19495	162.59268	1464.39844	653.25140	333.88586	1337.59558	795.13092	387.44141	1533.95410	586.99268	661.29803	1223.51440	781.93665	114.74319	1172.34729	587.67548	615.02875	982.42261	847.25726	92.42156	984.43817	746.88403	482.61877	955.17883	863.14050	221.89531	955.69269	758.74091	483.05939	983.12671	550.00208	545.59320	528.89435	897.15009	249.73706	495.82916	673.97504	573.89514	124.19574	911.01086	295.96432	173.21245	455.05795	
647	6.460	196.21857	1490.67212	893.32086										556.13660	1537.77869	782.56677	165.13518	1465.11768	655.91461	333.60577	1338.35364	801.58948	390.80377	1534.97644	594.01959	660.31213	1224.43188	794.19226	118.88628	1173.62451	588.88092	613.76428	983.32648	858.27533	93.30015	985.33997	748.31494	482.46555	956.58374	870.97681	221.55424	956.79510	762.90930	486.80347	984.15289	558.22028	543.94543	531.09399	905.87927	254.20372	497.23059	683.30206	573.32111	123.46621	911.90021	295.30862	178.89833	463.07394	
648	6.470	194.36249	1491.09167	897.10358										555.78210	1538.67871	791.92859	167.08527	1465.90442	658.82410	333.81458	1339.47034	807.06494	393.82828	1536.14661	601.00037	659.33521	1225.57703	806.03119	122.79651	1174.49988	590.07404	611.70709	984.05902	868.57275	94.13116	986.50739	749.30811	481.72797	956.79120	877.74738	222.18207	957.53790	766.64685	490.73474	986.11139	566.27307	541.91663	531.69226	912.95703	257.17722	499.73691	692.97314	573.11377	123.34921	912.12042	295.44931	184.83763	469.88577	
649	6.480	192.28751	1491.44080	900.88318										555.59601	1540.13660	802.73853	169.64214	1467.07629	661.66541	333.02271	1339.83008	812.61395	396.60376	1537.52295	607.66406	658.81940	1226.27563	818.77484	126.48675	1175.48743	591.26917	610.06763	985.31476	879.40283	95.04388	987.63123	749.90228	481.35419	957.41077	884.32495	222.79308	958.59784	770.15375	494.04776	987.36700	574.35571	541.75146	532.79388	920.11810	258.83948	501.90588	702.65997	573.00934	123.37631	912.09143	294.99319	191.34094	477.02737	
650	6.490	190.43422	1491.96680	904.40131										554.50897	1541.20496	812.46368	171.45743	1467.70349	664.28442	332.54810	1340.33069	817.67816	399.82819	1538.86719	614.39081	657.58282	1227.95837	830.05560	129.11183	1176.61011	591.06097	607.54291	986.49268	890.12067	95.99680	988.86414	750.44562	481.36795	958.81622	893.46033	223.17688	959.46021	773.31738	498.39755	988.92480	582.63708	542.18390	533.15259	925.72205	255.18312	505.79468	711.18585	572.45215	122.98537	911.78320	293.99170	197.93022	484.33859	
651	6.500	187.40903	1492.66663	907.98395	330.93475	1648.85425	919.47314							554.12177	1542.46912	822.01056	174.01120	1468.27258	666.94824	332.06717	1340.62842	822.81238	402.47244	1539.95886	621.14740	655.88763	1228.92871	842.24506	133.26833	1176.90002	591.25659	605.79077	987.40369	900.88593	97.71354	990.06714	750.96423	479.55490	959.23761	897.78796	223.67906	959.95422	776.13202	502.29312	990.46930	590.49658	542.97345	532.57672	932.74878	251.24796	509.85486	718.53900	572.41510	122.96619	911.77679	294.38174	203.83136	490.89828	
652	6.510	185.00404	1492.91528	911.24890										552.53381	1543.39893	832.86249	175.25999	1469.13892	669.87286	331.41263	1340.89917	827.40613	404.81732	1541.12329	628.01428	654.90149	1230.01831	854.34930	137.39516	1177.96594	592.06055	603.15601	988.49042	911.54065	98.96398	991.38666	751.37671	478.54013	959.94458	906.12738	223.97383	960.80823	778.94073	505.56628	991.56012	599.05096	542.53326	533.83704	937.99396	246.24144	513.76709	727.33331	572.31055	122.78497	911.57391	296.03833	209.01566	498.26019	
653	6.520	181.66588	1493.72449	914.32281										550.42212	1542.61475	840.50555	177.67517	1469.61023	672.32837	330.40204	1341.25903	831.82965	407.45633	1542.66785	635.11670	653.64813	1230.84790	865.93256	141.29105	1179.15918	592.52930	600.92944	989.44385	922.55792	99.90705	992.55768	751.49927	477.60284	960.79907	913.03351	224.44975	961.24823	781.24890	509.55035	992.92365	606.48212	541.11261	534.16754	942.98682	245.37996	516.24182	738.86292	572.20697	122.62397	910.96234	297.72937	213.56516	506.29074	
654	6.530	179.11655	1493.80774	917.07141										548.15112	1543.50305	851.29755	175.42923	1471.41406	676.05774	329.51337	1341.62634	836.40729	410.23621	1544.10352	642.76416	651.40417	1232.31458	877.41199	145.32072	1179.78418	593.66156	597.51428	990.44617	933.32288	101.08293	993.95660	751.63788	475.50031	960.80444	918.41614	224.68396	961.60809	782.97125	513.56238	994.26196	614.47339	541.09399	534.10449	947.68005	243.06015	517.95886	751.76093	573.20514	123.08991	910.87268	299.16168	216.95595	515.23541	
655	6.540	176.77205	1493.73328	919.77930										545.82574	1544.25525	859.67480	181.21115	1470.95923	676.89893	329.27325	1342.09448	841.02728	411.89227	1545.82153	648.88293	649.00726	1233.34070	889.16571	148.99480	1180.88965	594.46655	594.97107	991.51251	943.90540	102.14087	994.98743	751.43475	473.04791	961.61218	925.24219	224.74739	962.26740	784.62561	516.94464	996.29541	622.93341	539.53735	534.21881	951.86884	240.79147	519.09308	765.19873	572.15399	122.44191	911.25513	300.22498	219.99861	523.96716	
656	6.550	173.47205	1493.77185	922.37415										543.76855	1545.20728	868.71881	183.12350	1471.56824	679.04962	327.99271	1342.56763	845.51440	413.93808	1546.99768	656.39893	646.40625	1234.43994	900.62762	152.61516	1181.87158	595.71271	591.85614	992.50507	954.21356	103.57879	996.28125	750.95941	471.07935	961.57751	931.17584	224.89792	963.00848	785.89612	520.59308	997.23975	630.17004	539.59583	534.15448	956.36523	236.70210	519.84094	778.02478	571.73816	123.28378	911.64648	302.64566	221.50223	534.14929	
657	6.560	170.62595	1493.88245	924.39410										541.94873	1545.99854	878.57953	184.58728	1472.34570	681.02490	326.72171	1343.47742	849.82520	415.75919	1548.33411	663.74786	643.23395	1235.24548	912.19965	156.09686	1183.28735	596.52283	588.21277	993.67963	964.78424	104.82000	997.23273	751.37146	469.10837	962.17859	937.20593	225.15428	963.82336	786.96661	523.93774	998.86694	636.14954	538.35162	534.42761	961.07312	231.01413	520.65283	789.09338	571.61713	123.29783	912.26813	304.96399	221.89549	545.14807	
658	6.570	168.00459	1493.33264	926.27850	306.86752	1651.67139	956.13965							538.90613	1546.59045	886.77948	186.22250	1473.33081	683.04187	326.11948	1343.49524	853.28821	417.32855	1549.76221	669.70215	640.72333	1236.40015	922.43488	159.92682	1184.62610	597.31476	585.16595	994.72510	975.02094	106.33363	998.11731	751.07996	465.20895	962.12067	941.69904	225.19032	964.89563	787.98669	526.04059	1000.61847	643.94794	536.71558	534.11456	965.34863	224.03224	521.50940	798.79895	571.49420	123.47298	912.57019	306.72150	221.14420	557.02637	
659	6.580	165.53601	1492.90051	928.04089										536.52997	1547.54907	895.25952	187.67899	1474.27637	684.96960	324.14624	1344.15540	857.44086	418.63535	1551.37366	675.37720	637.80109	1237.18262	933.83948	163.70596	1185.34424	598.41132	581.31207	996.22144	985.10284	107.78828	998.84894	750.83875	462.27637	962.62524	947.14282	224.69250	966.05493	789.02661	527.37915	1002.25739	651.43420	533.61151	534.87994	970.45374	216.73909	521.75726	807.28455	571.33594	123.35335	912.66498	307.80765	219.29993	569.00287	
660	6.590	162.62427	1492.43982	929.59332										533.29962	1548.23230	903.32196	188.97440	1475.12329	686.78961	322.28397	1344.70923	861.53381	419.89459	1552.77832	681.57507	634.67944	1238.43274	944.42841	167.13164	1186.40527	599.83203	577.87109	997.14087	994.99438	109.16119	999.89557	750.55347	459.27609	963.05310	952.73346	224.55782	967.18896	789.92535	527.51312	1003.39673	659.41620	528.06097	535.74634	974.94238	210.10570	524.47687	814.06262	571.49060	123.57074	912.92285	308.49945	217.19530	582.44299	
661	6.600	159.07419	1492.47559	930.92371	294.01178	1651.86523	969.14227							531.00500	1549.10559	912.95746	190.44702	1476.07349	688.67584	320.88058	1345.13977	865.17139	421.11069	1553.94714	688.81415	631.57721	1239.79004	954.95636	170.11790	1187.55994	600.22266	573.55048	998.82721	1004.85504	110.38395	1000.83350	750.17889	456.60379	963.53418	958.03668	224.17943	968.42096	791.18073	527.83673	1004.99316	666.65735	523.66205	535.76111	979.89075	204.54857	529.06207	819.88293	571.35773	123.49030	913.15833	309.48758	213.43245	595.75488	
662	6.610	157.12729	1491.83325	932.08362	290.20428	1652.07117	972.99939							527.64319	1549.77771	920.84418	191.75760	1477.12097	690.51245	318.65015	1346.18958	868.94281	422.43076	1554.83777	695.67297	628.01117	1240.64990	965.29486	173.18436	1188.90222	600.98773	568.75885	1000.30084	1015.05573	111.68916	1001.74481	749.78668	454.16180	963.70831	963.57727	223.50580	970.10181	793.47821	527.84460	1005.90216	673.04822	517.84943	535.85547	984.80377	199.13594	533.51202	824.28375	571.11060	123.68843	913.83954	309.37408	209.60934	608.72845	
663	6.620	153.52623	1491.78345	933.24500	285.62186	1652.06201	976.79706							525.79108	1550.69714	931.30341	192.56970	1478.04395	692.24603	316.65146	1346.38745	873.01147	423.05289	1555.95947	700.98822	624.17334	1241.63196	975.49908	176.67737	1189.73621	601.89496	564.31866	1001.63678	1025.23486	113.27367	1002.09918	749.33759	450.80615	964.65649	969.04315	223.38470	970.69373	794.13947	527.20886	1007.14587	679.69092	512.14880	535.47235	989.81451	194.42131	537.98022	829.24475	570.99011	124.25412	914.25793	309.45752	205.69588	622.20807	
664	6.630	150.71027	1491.57178	934.12469	281.95618	1651.93872	980.24084							521.38470	1550.56763	937.98627	193.33270	1478.93982	694.00549	314.70248	1346.58521	876.40942	423.77374	1557.01733	707.15906	620.99329	1243.00696	985.54193	180.26369	1190.72778	602.45441	560.79254	1002.38947	1034.48572	114.33145	1002.65790	748.96472	448.01135	965.10120	973.78101	222.37155	972.01178	795.30615	526.64594	1008.36328	686.00311	505.91238	535.71729	992.78070	190.04758	541.73169	832.85938	571.02209	124.12607	914.34161	308.65195	200.64037	637.59656	
